<svg width="50" height="50" viewBox="0 0 50 50" fill="none" xmlns="http://www.w3.org/2000/svg">
<g clip-path="url(#clip0_154_3532)">
<path d="M25.1665 4.1665C30.8722 4.1665 31.5841 4.1875 33.8227 4.2925C36.0592 4.3975 37.5817 4.7482 38.9215 5.269C40.3075 5.8024 41.4751 6.5248 42.6427 7.6903C43.7105 8.74009 44.5368 10.0099 45.064 11.4115C45.5827 12.7492 45.9355 14.2738 46.0405 16.5103C46.1392 18.7489 46.1665 19.4608 46.1665 25.1665C46.1665 30.8722 46.1455 31.5841 46.0405 33.8227C45.9355 36.0592 45.5827 37.5817 45.064 38.9215C44.5383 40.3238 43.7119 41.594 42.6427 42.6427C41.5926 43.7102 40.3228 44.5364 38.9215 45.064C37.5838 45.5827 36.0592 45.9355 33.8227 46.0405C31.5841 46.1392 30.8722 46.1665 25.1665 46.1665C19.4608 46.1665 18.7489 46.1455 16.5103 46.0405C14.2738 45.9355 12.7513 45.5827 11.4115 45.064C10.0094 44.5379 8.73931 43.7115 7.6903 42.6427C6.62226 41.5931 5.79596 40.3232 5.269 38.9215C4.7482 37.5838 4.3975 36.0592 4.2925 33.8227C4.1938 31.5841 4.1665 30.8722 4.1665 25.1665C4.1665 19.4608 4.1875 18.7489 4.2925 16.5103C4.3975 14.2717 4.7482 12.7513 5.269 11.4115C5.7945 10.0091 6.62099 8.73888 7.6903 7.6903C8.73961 6.62189 10.0096 5.79554 11.4115 5.269C12.7513 4.7482 14.2717 4.3975 16.5103 4.2925C18.7489 4.1938 19.4608 4.1665 25.1665 4.1665ZM25.1665 14.6665C22.3817 14.6665 19.711 15.7727 17.7419 17.7419C15.7727 19.711 14.6665 22.3817 14.6665 25.1665C14.6665 27.9513 15.7727 30.622 17.7419 32.5911C19.711 34.5603 22.3817 35.6665 25.1665 35.6665C27.9513 35.6665 30.622 34.5603 32.5911 32.5911C34.5603 30.622 35.6665 27.9513 35.6665 25.1665C35.6665 22.3817 34.5603 19.711 32.5911 17.7419C30.622 15.7727 27.9513 14.6665 25.1665 14.6665ZM38.8165 14.1415C38.8165 13.4453 38.5399 12.7776 38.0477 12.2853C37.5554 11.7931 36.8877 11.5165 36.1915 11.5165C35.4953 11.5165 34.8276 11.7931 34.3353 12.2853C33.8431 12.7776 33.5665 13.4453 33.5665 14.1415C33.5665 14.8377 33.8431 15.5054 34.3353 15.9977C34.8276 16.4899 35.4953 16.7665 36.1915 16.7665C36.8877 16.7665 37.5554 16.4899 38.0477 15.9977C38.5399 15.5054 38.8165 14.8377 38.8165 14.1415ZM25.1665 18.8665C26.8374 18.8665 28.4398 19.5303 29.6213 20.7117C30.8028 21.8932 31.4665 23.4956 31.4665 25.1665C31.4665 26.8374 30.8028 28.4398 29.6213 29.6213C28.4398 30.8028 26.8374 31.4665 25.1665 31.4665C23.4956 31.4665 21.8932 30.8028 20.7117 29.6213C19.5303 28.4398 18.8665 26.8374 18.8665 25.1665C18.8665 23.4956 19.5303 21.8932 20.7117 20.7117C21.8932 19.5303 23.4956 18.8665 25.1665 18.8665Z" fill="#E0E0E0"/>
</g>
<defs>
<clipPath id="clip0_154_3532">
<rect width="50" height="50" fill="white"/>
</clipPath>
</defs>
</svg>
